<?xml version="1.0" encoding="UTF-8" standalone="no" ?>
<!DOCTYPE svg PUBLIC "-//W3C//DTD SVG 1.1//EN" "http://www.w3.org/Graphics/SVG/1.1/DTD/svg11.dtd">
<svg xmlns="http://www.w3.org/2000/svg" xmlns:xlink="http://www.w3.org/1999/xlink" version="1.1" width="1104" height="708" viewBox="0 0 1104 708" xml:space="preserve">
<desc>Created with Fabric.js 2.7.0</desc>
<defs>
</defs>
<rect x="0" y="0" width="100%" height="100%" fill="white"></rect>
<g transform="matrix(1 0 0 1 48 215.5)"  >
<line style="stroke: rgb(0,0,0); stroke-width: 4; stroke-dasharray: none; stroke-linecap: butt; stroke-dashoffset: 0; stroke-linejoin: miter; stroke-miterlimit: 4; fill: rgb(0,0,0); fill-rule: nonzero; opacity: 1;"  x1="0" y1="40.5" x2="0" y2="-40.5" />
</g>
<g transform="matrix(1 0 0 1 48 452)"  >
<line style="stroke: rgb(0,0,0); stroke-width: 4; stroke-dasharray: none; stroke-linecap: butt; stroke-dashoffset: 0; stroke-linejoin: miter; stroke-miterlimit: 4; fill: rgb(0,0,0); fill-rule: nonzero; opacity: 1;"  x1="0" y1="196" x2="0" y2="-196" />
</g>
<g transform="matrix(1 0 0 1 552 648)"  >
<line style="stroke: rgb(0,0,0); stroke-width: 4; stroke-dasharray: none; stroke-linecap: butt; stroke-dashoffset: 0; stroke-linejoin: miter; stroke-miterlimit: 4; fill: rgb(0,0,0); fill-rule: nonzero; opacity: 1;"  x1="504" y1="0" x2="-504" y2="0" />
</g>
<g transform="matrix(1 0 0 1 1056 348)"  >
<line style="stroke: rgb(0,0,0); stroke-width: 4; stroke-dasharray: none; stroke-linecap: butt; stroke-dashoffset: 0; stroke-linejoin: miter; stroke-miterlimit: 4; fill: rgb(0,0,0); fill-rule: nonzero; opacity: 1;"  x1="0" y1="-300" x2="0" y2="300" />
</g>
<g transform="matrix(1 0 0 1 743.5 48)"  >
<line style="stroke: rgb(0,0,0); stroke-width: 4; stroke-dasharray: none; stroke-linecap: butt; stroke-dashoffset: 0; stroke-linejoin: miter; stroke-miterlimit: 4; fill: rgb(0,0,0); fill-rule: nonzero; opacity: 1;"  x1="-312.5" y1="0" x2="312.5" y2="0" />
</g>
<g transform="matrix(1 0 0 1 431 78)"  >
<line style="stroke: rgb(0,0,0); stroke-width: 4; stroke-dasharray: none; stroke-linecap: butt; stroke-dashoffset: 0; stroke-linejoin: miter; stroke-miterlimit: 4; fill: rgb(0,0,0); fill-rule: nonzero; opacity: 1;"  x1="0" y1="30" x2="0" y2="-30" />
</g>
<g transform="matrix(1 0 0 1 348 108)"  >
<line style="stroke: rgb(0,0,0); stroke-width: 4; stroke-dasharray: none; stroke-linecap: butt; stroke-dashoffset: 0; stroke-linejoin: miter; stroke-miterlimit: 4; fill: rgb(0,0,0); fill-rule: nonzero; opacity: 1;"  x1="-83" y1="0" x2="83" y2="0" />
</g>
<g transform="matrix(1 0 0 1 265 173)"  >
<line style="stroke: rgb(0,0,0); stroke-width: 4; stroke-dasharray: none; stroke-linecap: butt; stroke-dashoffset: 0; stroke-linejoin: miter; stroke-miterlimit: 4; fill: rgb(0,0,0); fill-rule: nonzero; opacity: 1;"  x1="0" y1="65" x2="0" y2="-65" />
</g>
<g transform="matrix(1 0 0 1 173 238)"  >
<line style="stroke: rgb(0,0,0); stroke-width: 4; stroke-dasharray: none; stroke-linecap: butt; stroke-dashoffset: 0; stroke-linejoin: miter; stroke-miterlimit: 4; fill: rgb(0,0,0); fill-rule: nonzero; opacity: 1;"  x1="-92" y1="0" x2="92" y2="0" />
</g>
<g transform="matrix(1 0 0 1 81 206.5)"  >
<line style="stroke: rgb(0,0,0); stroke-width: 4; stroke-dasharray: none; stroke-linecap: butt; stroke-dashoffset: 0; stroke-linejoin: miter; stroke-miterlimit: 4; fill: rgb(0,0,0); fill-rule: nonzero; opacity: 1;"  x1="0" y1="-31.5" x2="0" y2="31.5" />
</g>
<g transform="matrix(1 0 0 1 64.5 175)"  >
<line style="stroke: rgb(0,0,0); stroke-width: 4; stroke-dasharray: none; stroke-linecap: butt; stroke-dashoffset: 0; stroke-linejoin: miter; stroke-miterlimit: 4; fill: rgb(0,0,0); fill-rule: nonzero; opacity: 1;"  x1="-16.5" y1="0" x2="16.5" y2="0" />
</g>
<g transform="matrix(1 0 0 1 448 64.5)" style=""  >
	<g transform="matrix(1 0 0 1 -0.5 -16.5)"  >
<rect style="stroke: rgb(0,0,0); stroke-width: 0; stroke-dasharray: none; stroke-linecap: butt; stroke-dashoffset: 0; stroke-linejoin: miter; stroke-miterlimit: 4; fill: rgb(255,255,255); fill-rule: nonzero; opacity: 1;"  x="-16" y="-2" rx="0" ry="0" width="32" height="4" />
</g>
	<g transform="matrix(1 0 0 1 -16 -0.5)"  >
<line style="stroke: rgb(0,0,0); stroke-width: 1; stroke-dasharray: none; stroke-linecap: butt; stroke-dashoffset: 0; stroke-linejoin: miter; stroke-miterlimit: 4; fill: rgb(255,255,255); fill-rule: nonzero; opacity: 1;"  x1="0" y1="-18" x2="0" y2="18" />
</g>
	<g transform="matrix(1 0 0 1 0 2)"  >
<path style="stroke: rgb(221,221,221); stroke-width: 1; stroke-dasharray: none; stroke-linecap: butt; stroke-dashoffset: 0; stroke-linejoin: miter; stroke-miterlimit: 4; fill: rgb(255,255,255); fill-opacity: 0; fill-rule: nonzero; opacity: 1;"  transform=" translate(-16, -20)" d="M 0 36 Q 32 36 32 4" stroke-linecap="round" />
</g>
</g>
<g transform="matrix(1 0 0 1 48 175)"  >
<rect style="stroke: none; stroke-width: 0; stroke-dasharray: none; stroke-linecap: butt; stroke-dashoffset: 0; stroke-linejoin: miter; stroke-miterlimit: 4; fill: rgb(0,0,0); fill-rule: nonzero; opacity: 1;"  x="-2" y="-2" rx="0" ry="0" width="4" height="4" />
</g>
<g transform="matrix(1 0 0 1 81 175)"  >
<rect style="stroke: none; stroke-width: 0; stroke-dasharray: none; stroke-linecap: butt; stroke-dashoffset: 0; stroke-linejoin: miter; stroke-miterlimit: 4; fill: rgb(0,0,0); fill-rule: nonzero; opacity: 1;"  x="-2" y="-2" rx="0" ry="0" width="4" height="4" />
</g>
<g transform="matrix(1 0 0 1 81 238)"  >
<rect style="stroke: none; stroke-width: 0; stroke-dasharray: none; stroke-linecap: butt; stroke-dashoffset: 0; stroke-linejoin: miter; stroke-miterlimit: 4; fill: rgb(0,0,0); fill-rule: nonzero; opacity: 1;"  x="-2" y="-2" rx="0" ry="0" width="4" height="4" />
</g>
<g transform="matrix(1 0 0 1 265 238)"  >
<rect style="stroke: none; stroke-width: 0; stroke-dasharray: none; stroke-linecap: butt; stroke-dashoffset: 0; stroke-linejoin: miter; stroke-miterlimit: 4; fill: rgb(0,0,0); fill-rule: nonzero; opacity: 1;"  x="-2" y="-2" rx="0" ry="0" width="4" height="4" />
</g>
<g transform="matrix(1 0 0 1 265 108)"  >
<rect style="stroke: none; stroke-width: 0; stroke-dasharray: none; stroke-linecap: butt; stroke-dashoffset: 0; stroke-linejoin: miter; stroke-miterlimit: 4; fill: rgb(0,0,0); fill-rule: nonzero; opacity: 1;"  x="-2" y="-2" rx="0" ry="0" width="4" height="4" />
</g>
<g transform="matrix(1 0 0 1 431 108)"  >
<rect style="stroke: none; stroke-width: 0; stroke-dasharray: none; stroke-linecap: butt; stroke-dashoffset: 0; stroke-linejoin: miter; stroke-miterlimit: 4; fill: rgb(0,0,0); fill-rule: nonzero; opacity: 1;"  x="-2" y="-2" rx="0" ry="0" width="4" height="4" />
</g>
<g transform="matrix(1 0 0 1 431 48)"  >
<rect style="stroke: none; stroke-width: 0; stroke-dasharray: none; stroke-linecap: butt; stroke-dashoffset: 0; stroke-linejoin: miter; stroke-miterlimit: 4; fill: rgb(0,0,0); fill-rule: nonzero; opacity: 1;"  x="-2" y="-2" rx="0" ry="0" width="4" height="4" />
</g>
<g transform="matrix(1 0 0 1 1056 48)"  >
<rect style="stroke: none; stroke-width: 0; stroke-dasharray: none; stroke-linecap: butt; stroke-dashoffset: 0; stroke-linejoin: miter; stroke-miterlimit: 4; fill: rgb(0,0,0); fill-rule: nonzero; opacity: 1;"  x="-2" y="-2" rx="0" ry="0" width="4" height="4" />
</g>
<g transform="matrix(1 0 0 1 1056 648)"  >
<rect style="stroke: none; stroke-width: 0; stroke-dasharray: none; stroke-linecap: butt; stroke-dashoffset: 0; stroke-linejoin: miter; stroke-miterlimit: 4; fill: rgb(0,0,0); fill-rule: nonzero; opacity: 1;"  x="-2" y="-2" rx="0" ry="0" width="4" height="4" />
</g>
<g transform="matrix(1 0 0 1 48 648)"  >
<rect style="stroke: none; stroke-width: 0; stroke-dasharray: none; stroke-linecap: butt; stroke-dashoffset: 0; stroke-linejoin: miter; stroke-miterlimit: 4; fill: rgb(0,0,0); fill-rule: nonzero; opacity: 1;"  x="-2" y="-2" rx="0" ry="0" width="4" height="4" />
</g>
<g transform="matrix(1 0 0 1 48 256)"  >
<rect style="stroke: none; stroke-width: 0; stroke-dasharray: none; stroke-linecap: butt; stroke-dashoffset: 0; stroke-linejoin: miter; stroke-miterlimit: 4; fill: rgb(0,0,0); fill-rule: nonzero; opacity: 1;"  x="-2" y="-2" rx="0" ry="0" width="4" height="4" />
</g>
<g transform="matrix(1 0 0 1 142.21 691.28)" style=""  >
		<text xml:space="preserve" font-family="Arial" font-size="12" font-style="normal" font-weight="normal" style="stroke: none; stroke-width: 1; stroke-dasharray: none; stroke-linecap: butt; stroke-dashoffset: 0; stroke-linejoin: miter; stroke-miterlimit: 4; fill: rgb(153,153,153); fill-rule: nonzero; opacity: 1; white-space: pre;" ><tspan x="-93.71" y="3.77" >Created with Faithlife Room Layout</tspan></text>
</g>
</svg>